HIERARCHY
ROOT SpineBase
{
  OFFSET 0.000000 0.000000 0.000000
  CHANNELS 6 Xposition Yposition Zposition Zrotation Xrotation Yrotation
  JOINT SpineMid
  {
    OFFSET -0.000000 28.106431 0.000000
    CHANNELS 3 Zrotation Xrotation Yrotation
    JOINT SpineShoulder
    {
      OFFSET -0.117327 20.951272 -0.721655
      CHANNELS 3 Zrotation Xrotation Yrotation
      JOINT Neck
      {
        OFFSET -0.068546 6.953184 -0.534381
        CHANNELS 3 Zrotation Xrotation Yrotation
        JOINT Head
        {
          OFFSET -2.580150 12.124919 -0.499228
          CHANNELS 3 Zrotation Xrotation Yrotation
          End Site
          {
            OFFSET 0 0 0
          }
        }
      }
      JOINT ShoulderLeft
      {
        OFFSET -16.190713 -1.221497 7.170617
        CHANNELS 3 Zrotation Xrotation Yrotation
        JOINT ElbowLeft
        {
          OFFSET -3.749597 -27.209632 2.831308
          CHANNELS 3 Zrotation Xrotation Yrotation
          JOINT WristLeft
          {
            OFFSET -3.763708 -19.871585 -4.097479
            CHANNELS 3 Zrotation Xrotation Yrotation
            JOINT HandLeft
            {
              OFFSET 0.408142 -6.412971 -3.102306
              CHANNELS 3 Zrotation Xrotation Yrotation
              JOINT HandTipLeft
              {
                OFFSET -0.483726 -6.407665 -1.081574
                CHANNELS 3 Zrotation Xrotation Yrotation
                End Site
                {
                  OFFSET 0 0 0
                }
              }
              JOINT ThumbLeft
              {
                OFFSET -2.582240 -0.601160 -1.607370
                CHANNELS 3 Zrotation Xrotation Yrotation
                End Site
                {
                  OFFSET 0 0 0
                }
              }
            }
          }
        }
      }
      JOINT ShoulderRight
      {
        OFFSET 15.153417 -1.501038 -6.382180
        CHANNELS 3 Zrotation Xrotation Yrotation
        JOINT ElbowRight
        {
          OFFSET 6.356048 -26.727065 -3.257156
          CHANNELS 3 Zrotation Xrotation Yrotation
          JOINT WristRight
          {
            OFFSET 0.914974 -19.925666 -4.981976
            CHANNELS 3 Zrotation Xrotation Yrotation
            JOINT HandRight
            {
              OFFSET -0.987694 -7.668356 -1.984051
              CHANNELS 3 Zrotation Xrotation Yrotation
              JOINT HandTipRight
              {
                OFFSET -0.511739 -6.478691 -1.235257
                CHANNELS 3 Zrotation Xrotation Yrotation
                End Site
                {
                  OFFSET 0 0 0
                }
              }
              JOINT ThumbRight
              {
                OFFSET -3.296912 0.807081 -0.643318
                CHANNELS 3 Zrotation Xrotation Yrotation
                End Site
                {
                  OFFSET 0 0 0
                }
              }
            }
          }
        }
      }
    }
  }
  JOINT HipLeft
  {
    OFFSET -6.646881 0.557880 -1.311033
    CHANNELS 3 Zrotation Xrotation Yrotation
    JOINT KneeLeft
    {
      OFFSET -2.753875 -33.582818 3.883877
      CHANNELS 3 Zrotation Xrotation Yrotation
      JOINT AnkleLeft
      {
        OFFSET 2.600757 -33.327600 4.618041
        CHANNELS 3 Zrotation Xrotation Yrotation
        JOINT FootLeft
        {
          OFFSET -3.809399 -3.214944 -12.159870
          CHANNELS 3 Zrotation Xrotation Yrotation
          End Site
          {
            OFFSET 0 0 0
          }
        }
      }
    }
  }
  JOINT HipRight
  {
    OFFSET 6.152376 1.063974 -5.029572
    CHANNELS 3 Zrotation Xrotation Yrotation
    JOINT KneeRight
    {
      OFFSET 5.787906 -31.860971 2.140030
      CHANNELS 3 Zrotation Xrotation Yrotation
      JOINT AnkleRight
      {
        OFFSET 2.056089 -33.590370 6.500516
        CHANNELS 3 Zrotation Xrotation Yrotation
        JOINT FootRight
        {
          OFFSET -5.081140 -5.308994 -8.618570
          CHANNELS 3 Zrotation Xrotation Yrotation
          End Site
          {
            OFFSET 0 0 0
          }
        }
      }
    }
  }
}
MOTION
Frames: 5
Frame Time: 0.033333
-0.440802 47.165739 339.968302 38.521068 -29.216891 23.403968 -0.543118 0.075531 -11.768617 -1.597258 0.332598 1.586505 30.786388 11.928582 -18.781739 0.000000 0.000000 0.000000 -15.692906 -12.908804 12.379626 43.071413 24.847965 -47.645983 -32.832760 -19.623127 4.440832 26.823007 18.923604 -10.495506 0.000000 0.000000 0.000000 0.000000 0.000000 0.000000 -15.228668 24.410830 -5.312639 27.072000 -22.151504 -1.727132 -46.658925 5.974038 24.460263 35.285334 -6.389841 -10.548653 0.000000 0.000000 0.000000 0.000000 0.000000 0.000000 -178.118603 43.819722 111.590198 126.598152 -8.106215 88.883124 -29.478711 -27.021707 -9.262710 0.000000 0.000000 0.000000 10.876720 32.519395 -24.022707 -18.398972 -19.891025 1.453113 -28.848453 55.656452 -8.506998 0.000000 0.000000 0.000000
1.010774 46.727753 340.017588 38.214300 -30.923666 16.337021 -0.746319 0.195712 -4.183592 -1.602680 0.374942 1.554167 31.955433 12.760645 -20.021051 0.000000 0.000000 0.000000 -14.886314 -11.427539 12.196269 43.896803 24.332599 -48.295837 -32.102550 -18.290340 3.913928 26.980735 17.725643 -9.672789 0.000000 0.000000 0.000000 0.000000 0.000000 0.000000 -24.870149 30.415622 1.546377 38.426794 -27.134537 -1.133767 -46.448218 -0.554869 26.139418 37.062834 0.267129 -16.211816 0.000000 0.000000 0.000000 0.000000 0.000000 0.000000 -173.325635 43.846385 107.319739 115.527484 -15.007797 87.230292 -27.527312 -34.338711 -19.263161 0.000000 0.000000 0.000000 6.847753 35.632064 -15.938685 -13.069321 -26.968959 4.152971 -66.754048 66.266281 26.637395 0.000000 0.000000 0.000000
1.895061 47.398682 339.291097 37.919513 -33.230788 9.383078 -1.032205 0.330912 3.504807 -1.566172 0.493814 1.489622 33.361915 13.899422 -21.666956 0.000000 0.000000 0.000000 -13.929764 -9.474785 11.948616 42.124470 26.073169 -47.063954 -30.065564 -18.305256 3.604126 25.059791 17.386949 -8.628412 0.000000 0.000000 0.000000 0.000000 0.000000 0.000000 -25.934514 32.340802 2.992300 39.517840 -25.669480 -1.996610 -44.608513 -3.637408 25.267768 36.476816 3.017824 -17.674460 0.000000 0.000000 0.000000 0.000000 0.000000 0.000000 -172.282005 44.725180 109.574733 104.499032 -34.795243 86.905622 -16.269877 -31.093919 -39.128331 0.000000 0.000000 0.000000 1.866598 38.003217 -7.212791 -12.663255 -26.550800 4.187894 -81.546193 69.714090 39.369725 0.000000 0.000000 0.000000
4.764994 48.474953 338.126097 35.895038 -36.139617 -0.923449 -1.374995 0.367239 14.091193 -1.434767 0.659594 1.327262 35.370281 10.500509 -22.080961 0.000000 0.000000 0.000000 -11.622642 -7.283416 11.300985 40.606748 30.017538 -46.762334 -26.403530 -17.617074 2.845242 20.225089 15.967526 -5.591630 0.000000 0.000000 0.000000 0.000000 0.000000 0.000000 -20.746589 32.470887 0.626836 34.130750 -19.995286 -3.885196 -45.249592 -11.686232 25.310229 40.747035 7.165077 -22.428083 0.000000 0.000000 0.000000 0.000000 0.000000 0.000000 -166.721994 45.607313 108.742982 89.978608 -63.078326 79.147697 7.179492 -22.043694 -42.416938 0.000000 0.000000 0.000000 -8.610164 38.995360 7.510849 -11.783967 -22.839584 3.118989 -78.278596 70.418919 37.292651 0.000000 0.000000 0.000000
5.283793 49.397952 337.662738 36.530687 -37.423542 -6.377341 -1.824975 0.348256 20.296132 -1.374208 0.774517 1.285797 35.888005 12.232687 -23.309103 0.000000 0.000000 0.000000 -11.513827 -6.254037 11.238934 39.633662 32.907253 -46.677644 -23.908405 -17.372232 2.451850 15.993805 13.776237 -2.936806 0.000000 0.000000 0.000000 0.000000 0.000000 0.000000 -16.310997 27.503618 -3.072174 26.957127 -12.008380 -5.703962 -41.315854 -12.152393 23.065521 34.923229 9.606837 -20.059571 0.000000 0.000000 0.000000 0.000000 0.000000 0.000000 -160.761679 46.588254 104.039415 47.884870 -73.718795 40.460885 21.945838 -3.647007 -45.388530 0.000000 0.000000 0.000000 -14.386415 38.816881 15.394121 -18.405004 -15.998522 0.135778 -32.947356 72.040480 -7.028319 0.000000 0.000000 0.000000
